<svg xmlns="http://www.w3.org/2000/svg" viewBox="0 0 512 512">
  <defs>
    <linearGradient id="bg" x1="0" y1="512" x2="512" y2="0" gradientUnits="userSpaceOnUse">
      <stop offset="0" stop-color="#3B73D1"/>
      <stop offset="1" stop-color="#82B4F5"/>
    </linearGradient>
  </defs>

  <rect width="512" height="512" rx="112" fill="url(#bg)"/>

  <path d="M256 54c-74 0-134 60-134 134 0 38 22 84 56 128 34 44 78 88 78 88s44-44 78-88c34-44 56-90 56-128 0-74-60-134-134-134z" fill="#ffffff"/>

  <circle cx="256" cy="188" r="80" fill="url(#bg)"/>

  <path d="M232 128h42c28 0 48 20 48 46s-20 46-48 46h-22v54h-20zm20 20v52h22c16 0 28-10 28-26s-12-26-28-26z" fill="#ffffff"/>

  <path d="M118 422c4-26 34-36 60-38l30-22c30-10 66-10 96 0l30 22c26 2 56 12 60 38v28c0 6-4 10-10 10h-24c-4-10-14-16-24-16s-20 6-24 16h-136c-4-10-14-16-24-16s-20 6-24 16h-24c-6 0-10-4-10-10z" fill="#ffffff"/>

  <circle cx="168" cy="452" r="12" fill="url(#bg)"/>
  <circle cx="344" cy="452" r="12" fill="url(#bg)"/>

  <path d="M80 476h352l-24 24H104z" fill="#ffffff"/>
</svg>
